<mxfile host="app.diagrams.net" agent="Mozilla/5.0 (Windows NT 10.0; Win64; x64) AppleWebKit/537.36 (KHTML, like Gecko) Chrome/138.0.0.0 Safari/537.36" version="27.2.0">
  <diagram name="Page-1" id="cY6TYVU0ejr2oTcE_D5h">
    <mxGraphModel dx="2767" dy="1195" grid="1" gridSize="10" guides="1" tooltips="1" connect="1" arrows="1" fold="1" page="1" pageScale="1" pageWidth="850" pageHeight="1100" math="0" shadow="0">
      <root>
        <mxCell id="0" />
        <mxCell id="1" parent="0" />
        <mxCell id="8td8zYdxqyJ1mNfneDeH-1" value="" style="rounded=0;whiteSpace=wrap;html=1;fillColor=none;dashed=1;" vertex="1" parent="1">
          <mxGeometry x="-460" y="260" width="150" height="560" as="geometry" />
        </mxCell>
        <mxCell id="8td8zYdxqyJ1mNfneDeH-2" value="Sources" style="rounded=0;whiteSpace=wrap;html=1;fillColor=default;dashed=1;dashPattern=12 12;strokeColor=none;fontSize=18;textShadow=0;fontStyle=1" vertex="1" parent="1">
          <mxGeometry x="-420" y="250" width="80" height="20" as="geometry" />
        </mxCell>
        <mxCell id="8td8zYdxqyJ1mNfneDeH-3" value="" style="rounded=0;whiteSpace=wrap;html=1;fillColor=none;dashed=1;" vertex="1" parent="1">
          <mxGeometry x="-263" y="260" width="563" height="560" as="geometry" />
        </mxCell>
        <mxCell id="8td8zYdxqyJ1mNfneDeH-4" value="Data Warehouse" style="rounded=0;whiteSpace=wrap;html=1;fillColor=default;dashed=1;dashPattern=12 12;strokeColor=none;fontSize=18;textShadow=0;fontStyle=1" vertex="1" parent="1">
          <mxGeometry x="-120" y="250" width="150" height="20" as="geometry" />
        </mxCell>
        <mxCell id="8td8zYdxqyJ1mNfneDeH-5" value="" style="rounded=0;whiteSpace=wrap;html=1;fillColor=none;dashed=1;" vertex="1" parent="1">
          <mxGeometry x="340" y="260" width="170" height="560" as="geometry" />
        </mxCell>
        <mxCell id="8td8zYdxqyJ1mNfneDeH-6" value="Consumer" style="rounded=0;whiteSpace=wrap;html=1;fillColor=default;dashed=1;dashPattern=12 12;strokeColor=none;fontSize=18;textShadow=0;fontStyle=1" vertex="1" parent="1">
          <mxGeometry x="385" y="250" width="80" height="20" as="geometry" />
        </mxCell>
        <mxCell id="8td8zYdxqyJ1mNfneDeH-8" value="" style="rounded=0;whiteSpace=wrap;html=1;fillColor=none;gradientColor=#ffa500;strokeColor=#d79b00;" vertex="1" parent="1">
          <mxGeometry x="-250" y="310" width="140" height="490" as="geometry" />
        </mxCell>
        <mxCell id="8td8zYdxqyJ1mNfneDeH-9" value="&lt;b&gt;Bronze&lt;/b&gt;" style="rounded=0;whiteSpace=wrap;html=1;fillColor=#ffcd28;gradientColor=#ffa500;strokeColor=#d79b00;" vertex="1" parent="1">
          <mxGeometry x="-250" y="280" width="140" height="20" as="geometry" />
        </mxCell>
        <mxCell id="8td8zYdxqyJ1mNfneDeH-12" value="&lt;b&gt;Silver&lt;/b&gt;" style="rounded=0;whiteSpace=wrap;html=1;fillColor=#f5f5f5;gradientColor=#b3b3b3;strokeColor=#666666;" vertex="1" parent="1">
          <mxGeometry x="-63" y="281.77" width="153" height="20" as="geometry" />
        </mxCell>
        <mxCell id="8td8zYdxqyJ1mNfneDeH-13" value="" style="rounded=0;whiteSpace=wrap;html=1;fillColor=none;gradientColor=#b3b3b3;strokeColor=#666666;" vertex="1" parent="1">
          <mxGeometry x="-63" y="311.77" width="153" height="488.23" as="geometry" />
        </mxCell>
        <mxCell id="8td8zYdxqyJ1mNfneDeH-14" value="&lt;b&gt;Gold&lt;/b&gt;" style="rounded=0;whiteSpace=wrap;html=1;fillColor=#fff2cc;gradientColor=#ffd966;strokeColor=#d6b656;" vertex="1" parent="1">
          <mxGeometry x="135" y="281" width="145" height="20" as="geometry" />
        </mxCell>
        <mxCell id="8td8zYdxqyJ1mNfneDeH-15" value="" style="rounded=0;whiteSpace=wrap;html=1;fillColor=none;gradientColor=#ffd966;strokeColor=#d6b656;" vertex="1" parent="1">
          <mxGeometry x="135" y="310" width="145" height="490" as="geometry" />
        </mxCell>
        <mxCell id="8td8zYdxqyJ1mNfneDeH-19" value="" style="group" vertex="1" connectable="0" parent="1">
          <mxGeometry x="-402.25" y="340" width="51.25" height="43.54000000000002" as="geometry" />
        </mxCell>
        <mxCell id="8td8zYdxqyJ1mNfneDeH-18" value="CRM" style="image;aspect=fixed;html=1;points=[];align=center;fontSize=12;image=img/lib/azure2/general/Folder_Blank.svg;" vertex="1" parent="8td8zYdxqyJ1mNfneDeH-19">
          <mxGeometry width="44.5" height="36.12" as="geometry" />
        </mxCell>
        <mxCell id="8td8zYdxqyJ1mNfneDeH-16" value="" style="aspect=fixed;html=1;align=center;fontSize=12;image=img/lib/azure2/general/File.svg;shape=image;labelBackgroundColor=default;verticalAlign=top;verticalLabelPosition=bottom;points=[];" vertex="1" parent="8td8zYdxqyJ1mNfneDeH-19">
          <mxGeometry x="22.25" y="20" width="29" height="23.54" as="geometry" />
        </mxCell>
        <mxCell id="8td8zYdxqyJ1mNfneDeH-21" value="" style="group" vertex="1" connectable="0" parent="1">
          <mxGeometry x="-400" y="440" width="51.25" height="43.54000000000002" as="geometry" />
        </mxCell>
        <mxCell id="8td8zYdxqyJ1mNfneDeH-22" value="ERP" style="image;aspect=fixed;html=1;points=[];align=center;fontSize=12;image=img/lib/azure2/general/Folder_Blank.svg;" vertex="1" parent="8td8zYdxqyJ1mNfneDeH-21">
          <mxGeometry width="44.5" height="36.12" as="geometry" />
        </mxCell>
        <mxCell id="8td8zYdxqyJ1mNfneDeH-23" value="" style="aspect=fixed;html=1;align=center;fontSize=12;image=img/lib/azure2/general/File.svg;shape=image;labelBackgroundColor=default;verticalAlign=top;verticalLabelPosition=bottom;points=[];" vertex="1" parent="8td8zYdxqyJ1mNfneDeH-21">
          <mxGeometry x="22.25" y="20" width="29" height="23.54" as="geometry" />
        </mxCell>
        <mxCell id="8td8zYdxqyJ1mNfneDeH-27" value="&lt;font style=&quot;font-size: 11px;&quot;&gt;&lt;b&gt;Object Type&lt;/b&gt;: CSV Files&lt;/font&gt;&lt;div&gt;&lt;span style=&quot;font-size: 11px;&quot;&gt;&lt;br&gt;&lt;/span&gt;&lt;div&gt;&lt;font style=&quot;font-size: 11px;&quot;&gt;&lt;b&gt;Interface&lt;/b&gt;: Files in Folders&lt;/font&gt;&lt;/div&gt;&lt;/div&gt;" style="text;html=1;align=center;verticalAlign=middle;whiteSpace=wrap;rounded=0;" vertex="1" parent="1">
          <mxGeometry x="-460" y="553" width="149" height="70" as="geometry" />
        </mxCell>
        <mxCell id="8td8zYdxqyJ1mNfneDeH-29" value="" style="html=1;verticalLabelPosition=bottom;align=center;labelBackgroundColor=#ffffff;verticalAlign=top;strokeWidth=2;strokeColor=#d79b00;shadow=0;dashed=0;shape=mxgraph.ios7.icons.data;fillColor=#ffcd28;gradientColor=#ffa500;" vertex="1" parent="1">
          <mxGeometry x="-205" y="366.77" width="50" height="60" as="geometry" />
        </mxCell>
        <mxCell id="8td8zYdxqyJ1mNfneDeH-33" value="" style="shape=mxgraph.arrows.arrow_right;html=1;verticalLabelPosition=bottom;verticalAlign=top;strokeWidth=2;strokeColor=#6c8ebf;fillColor=#dae8fc;gradientColor=#7ea6e0;" vertex="1" parent="1">
          <mxGeometry x="-320" y="444.99999999999994" width="57" height="30" as="geometry" />
        </mxCell>
        <mxCell id="8td8zYdxqyJ1mNfneDeH-35" value="" style="shape=mxgraph.arrows.arrow_right;html=1;verticalLabelPosition=bottom;verticalAlign=top;strokeWidth=2;strokeColor=#6c8ebf;fillColor=#dae8fc;gradientColor=#7ea6e0;" vertex="1" parent="1">
          <mxGeometry x="-120" y="444.99999999999994" width="57" height="30" as="geometry" />
        </mxCell>
        <mxCell id="8td8zYdxqyJ1mNfneDeH-36" value="" style="shape=mxgraph.arrows.arrow_right;html=1;verticalLabelPosition=bottom;verticalAlign=top;strokeWidth=2;strokeColor=#6c8ebf;fillColor=#dae8fc;gradientColor=#7ea6e0;" vertex="1" parent="1">
          <mxGeometry x="78" y="444.99999999999994" width="57" height="30" as="geometry" />
        </mxCell>
        <mxCell id="8td8zYdxqyJ1mNfneDeH-37" value="Raw Data" style="text;html=1;align=center;verticalAlign=middle;whiteSpace=wrap;rounded=0;" vertex="1" parent="1">
          <mxGeometry x="-250" y="430" width="140" height="30" as="geometry" />
        </mxCell>
        <mxCell id="8td8zYdxqyJ1mNfneDeH-38" value="" style="html=1;verticalLabelPosition=bottom;align=center;labelBackgroundColor=#ffffff;verticalAlign=top;strokeWidth=2;strokeColor=#d6b656;shadow=0;dashed=0;shape=mxgraph.ios7.icons.data;fillColor=#fff2cc;gradientColor=#ffd966;" vertex="1" parent="1">
          <mxGeometry x="182.5" y="370" width="50" height="60" as="geometry" />
        </mxCell>
        <mxCell id="8td8zYdxqyJ1mNfneDeH-39" value="" style="html=1;verticalLabelPosition=bottom;align=center;labelBackgroundColor=#ffffff;verticalAlign=top;strokeWidth=2;strokeColor=#666666;shadow=0;dashed=0;shape=mxgraph.ios7.icons.data;fillColor=#f5f5f5;gradientColor=#b3b3b3;" vertex="1" parent="1">
          <mxGeometry x="-11.5" y="370" width="50" height="60" as="geometry" />
        </mxCell>
        <mxCell id="8td8zYdxqyJ1mNfneDeH-40" value="Cleaned, Standardized&lt;div&gt;Data&lt;/div&gt;" style="text;html=1;align=center;verticalAlign=middle;whiteSpace=wrap;rounded=0;" vertex="1" parent="1">
          <mxGeometry x="-63" y="436.77" width="153" height="46.46" as="geometry" />
        </mxCell>
        <mxCell id="8td8zYdxqyJ1mNfneDeH-41" value="Business-Ready Data" style="text;html=1;align=center;verticalAlign=middle;whiteSpace=wrap;rounded=0;" vertex="1" parent="1">
          <mxGeometry x="135" y="426.77" width="145" height="46.46" as="geometry" />
        </mxCell>
        <mxCell id="8td8zYdxqyJ1mNfneDeH-43" value="&lt;font style=&quot;font-size: 11px;&quot;&gt;&lt;b&gt;Object Type&lt;/b&gt;: Tables&lt;/font&gt;&lt;div&gt;&lt;span style=&quot;font-size: 11px;&quot;&gt;&lt;br&gt;&lt;/span&gt;&lt;div style=&quot;text-align: left;&quot;&gt;&lt;span style=&quot;font-size: 11px;&quot;&gt;&lt;b&gt;Load:&lt;/b&gt;&lt;/span&gt;&lt;/div&gt;&lt;/div&gt;&lt;div&gt;&lt;ul&gt;&lt;li&gt;&lt;span style=&quot;font-size: 11px;&quot;&gt;&lt;b&gt;Batch Processing&lt;/b&gt;&lt;/span&gt;&lt;/li&gt;&lt;li style=&quot;text-align: left;&quot;&gt;&lt;span style=&quot;font-size: 11px;&quot;&gt;&lt;b&gt;Full Load&lt;/b&gt;&lt;/span&gt;&lt;/li&gt;&lt;li&gt;&lt;span style=&quot;font-size: 11px;&quot;&gt;&lt;b&gt;Truncate &amp;amp;&amp;nbsp; Insert&lt;/b&gt;&lt;/span&gt;&lt;/li&gt;&lt;/ul&gt;&lt;span style=&quot;font-size: 11px;&quot;&gt;&lt;div style=&quot;text-align: left;&quot;&gt;&lt;b style=&quot;background-color: transparent; color: light-dark(rgb(0, 0, 0), rgb(255, 255, 255));&quot;&gt;No Transformation&lt;/b&gt;&lt;/div&gt;&lt;div style=&quot;text-align: left;&quot;&gt;&lt;b style=&quot;background-color: transparent; color: light-dark(rgb(0, 0, 0), rgb(255, 255, 255));&quot;&gt;&lt;br&gt;&lt;/b&gt;&lt;/div&gt;&lt;/span&gt;&lt;/div&gt;&lt;div style=&quot;text-align: left;&quot;&gt;&lt;span style=&quot;font-size: 11px;&quot;&gt;&lt;b&gt;Data Model: None (as is)&lt;/b&gt;&lt;/span&gt;&lt;/div&gt;" style="text;html=1;align=center;verticalAlign=middle;whiteSpace=wrap;rounded=0;" vertex="1" parent="1">
          <mxGeometry x="-250" y="540" width="140" height="170" as="geometry" />
        </mxCell>
        <mxCell id="8td8zYdxqyJ1mNfneDeH-46" value="&lt;font style=&quot;font-size: 11px;&quot;&gt;&lt;b&gt;Object Type&lt;/b&gt;: Tables&lt;/font&gt;&lt;div&gt;&lt;span style=&quot;font-size: 11px;&quot;&gt;&lt;br&gt;&lt;/span&gt;&lt;div style=&quot;&quot;&gt;&lt;span style=&quot;font-size: 11px;&quot;&gt;&lt;b&gt;Load&lt;/b&gt;:&lt;/span&gt;&lt;/div&gt;&lt;/div&gt;&lt;div&gt;&lt;ul&gt;&lt;li&gt;&lt;span style=&quot;font-size: 11px;&quot;&gt;Batch Processing&lt;/span&gt;&lt;/li&gt;&lt;li style=&quot;&quot;&gt;&lt;span style=&quot;font-size: 11px;&quot;&gt;Full Load&lt;/span&gt;&lt;/li&gt;&lt;li&gt;&lt;span style=&quot;font-size: 11px;&quot;&gt;Truncate &amp;amp;&amp;nbsp; Insert&lt;/span&gt;&lt;/li&gt;&lt;/ul&gt;&lt;span style=&quot;font-size: 11px;&quot;&gt;&lt;div style=&quot;&quot;&gt;&lt;span style=&quot;background-color: transparent; color: light-dark(rgb(0, 0, 0), rgb(255, 255, 255));&quot;&gt;&lt;b&gt;Transformations&lt;/b&gt;:&lt;/span&gt;&lt;/div&gt;&lt;div style=&quot;&quot;&gt;&lt;ul&gt;&lt;li&gt;&lt;span style=&quot;background-color: transparent; color: light-dark(rgb(0, 0, 0), rgb(255, 255, 255));&quot;&gt;Data Cleaning&lt;/span&gt;&lt;/li&gt;&lt;li&gt;&lt;span style=&quot;background-color: transparent; color: light-dark(rgb(0, 0, 0), rgb(255, 255, 255));&quot;&gt;Data Standardization&lt;/span&gt;&lt;/li&gt;&lt;li&gt;&lt;span style=&quot;background-color: transparent; color: light-dark(rgb(0, 0, 0), rgb(255, 255, 255));&quot;&gt;Data Normalization&lt;/span&gt;&lt;/li&gt;&lt;li&gt;&lt;span style=&quot;background-color: transparent; color: light-dark(rgb(0, 0, 0), rgb(255, 255, 255));&quot;&gt;Derived Columns&lt;/span&gt;&lt;/li&gt;&lt;li&gt;&lt;span style=&quot;background-color: transparent; color: light-dark(rgb(0, 0, 0), rgb(255, 255, 255));&quot;&gt;Data Enrichment&lt;span style=&quot;white-space: pre;&quot;&gt;&#x9;&lt;/span&gt;&lt;/span&gt;&lt;/li&gt;&lt;/ul&gt;&lt;/div&gt;&lt;div style=&quot;&quot;&gt;&lt;span style=&quot;background-color: transparent; color: light-dark(rgb(0, 0, 0), rgb(255, 255, 255));&quot;&gt;&lt;br&gt;&lt;/span&gt;&lt;/div&gt;&lt;/span&gt;&lt;/div&gt;&lt;div style=&quot;&quot;&gt;&lt;span style=&quot;font-size: 11px;&quot;&gt;&lt;b&gt;Data Model&lt;/b&gt;: None (as is)&lt;/span&gt;&lt;/div&gt;" style="text;html=1;align=left;verticalAlign=top;whiteSpace=wrap;rounded=0;" vertex="1" parent="1">
          <mxGeometry x="-63" y="540" width="153" height="260" as="geometry" />
        </mxCell>
        <mxCell id="8td8zYdxqyJ1mNfneDeH-50" value="&lt;font style=&quot;font-size: 11px;&quot;&gt;&lt;b&gt;Object Type&lt;/b&gt;: Views&lt;/font&gt;&lt;div&gt;&lt;span style=&quot;font-size: 11px;&quot;&gt;&lt;br&gt;&lt;/span&gt;&lt;div style=&quot;&quot;&gt;&lt;span style=&quot;font-size: 11px;&quot;&gt;&lt;b&gt;No Load&lt;/b&gt;&lt;/span&gt;&lt;/div&gt;&lt;/div&gt;&lt;div style=&quot;&quot;&gt;&lt;span style=&quot;font-size: 11px;&quot;&gt;&lt;b&gt;&lt;br&gt;&lt;/b&gt;&lt;/span&gt;&lt;/div&gt;&lt;div&gt;&lt;span style=&quot;font-size: 11px;&quot;&gt;&lt;div style=&quot;&quot;&gt;&lt;span style=&quot;background-color: transparent; color: light-dark(rgb(0, 0, 0), rgb(255, 255, 255));&quot;&gt;&lt;b&gt;Transformations&lt;/b&gt;:&lt;/span&gt;&lt;/div&gt;&lt;div style=&quot;&quot;&gt;&lt;ul&gt;&lt;li&gt;&lt;span style=&quot;background-color: transparent; color: light-dark(rgb(0, 0, 0), rgb(255, 255, 255));&quot;&gt;Data Integrations&lt;/span&gt;&lt;/li&gt;&lt;li&gt;Aggregations&lt;/li&gt;&lt;li&gt;Business Logics&lt;/li&gt;&lt;/ul&gt;&lt;/div&gt;&lt;div style=&quot;&quot;&gt;&lt;span style=&quot;background-color: transparent; color: light-dark(rgb(0, 0, 0), rgb(255, 255, 255));&quot;&gt;&lt;br&gt;&lt;/span&gt;&lt;/div&gt;&lt;/span&gt;&lt;/div&gt;&lt;div style=&quot;&quot;&gt;&lt;span style=&quot;font-size: 11px;&quot;&gt;&lt;b&gt;Data Model&lt;/b&gt;:&lt;/span&gt;&lt;/div&gt;&lt;div style=&quot;&quot;&gt;&lt;ul&gt;&lt;li&gt;&lt;span style=&quot;font-size: 11px;&quot;&gt;Start Schema&lt;/span&gt;&lt;/li&gt;&lt;li&gt;&lt;span style=&quot;font-size: 11px;&quot;&gt;Flat Table&lt;/span&gt;&lt;/li&gt;&lt;li&gt;&lt;span style=&quot;font-size: 11px;&quot;&gt;Aggregated Table&lt;/span&gt;&lt;/li&gt;&lt;/ul&gt;&lt;/div&gt;" style="text;html=1;align=left;verticalAlign=middle;whiteSpace=wrap;rounded=0;" vertex="1" parent="1">
          <mxGeometry x="135" y="540" width="145" height="230" as="geometry" />
        </mxCell>
        <mxCell id="8td8zYdxqyJ1mNfneDeH-54" value="" style="shape=mxgraph.arrows.arrow_right;html=1;verticalLabelPosition=bottom;verticalAlign=top;strokeWidth=2;strokeColor=#6c8ebf;fillColor=#dae8fc;gradientColor=#7ea6e0;" vertex="1" parent="1">
          <mxGeometry x="283" y="444.99999999999994" width="57" height="30" as="geometry" />
        </mxCell>
        <mxCell id="8td8zYdxqyJ1mNfneDeH-55" value="BI &amp;amp; Reporting" style="image;aspect=fixed;html=1;points=[];align=center;fontSize=12;image=img/lib/azure2/analytics/Power_BI_Embedded.svg;" vertex="1" parent="1">
          <mxGeometry x="399.5" y="325.61" width="51" height="68" as="geometry" />
        </mxCell>
        <mxCell id="8td8zYdxqyJ1mNfneDeH-58" value="&lt;div&gt;&lt;br&gt;&lt;/div&gt;&lt;div&gt;&lt;br&gt;&lt;/div&gt;&lt;div&gt;&lt;br&gt;&lt;/div&gt;&lt;div&gt;&lt;br&gt;&lt;/div&gt;&lt;div&gt;&lt;br&gt;&lt;/div&gt;&lt;div&gt;Machine Learning&lt;/div&gt;" style="points=[];aspect=fixed;html=1;align=center;shadow=0;dashed=0;fillColor=#FF6A00;strokeColor=none;shape=mxgraph.alibaba_cloud.machine_learning;" vertex="1" parent="1">
          <mxGeometry x="410" y="660" width="49.8" height="50.099999999999994" as="geometry" />
        </mxCell>
        <mxCell id="8td8zYdxqyJ1mNfneDeH-59" value="Ad-Hoc&amp;nbsp;&lt;div&gt;SQL Queries&lt;/div&gt;&lt;div&gt;&lt;br&gt;&lt;/div&gt;" style="sketch=0;points=[[0,0,0],[0.25,0,0],[0.5,0,0],[0.75,0,0],[1,0,0],[0,1,0],[0.25,1,0],[0.5,1,0],[0.75,1,0],[1,1,0],[0,0.25,0],[0,0.5,0],[0,0.75,0],[1,0.25,0],[1,0.5,0],[1,0.75,0]];outlineConnect=0;fontColor=#232F3E;fillColor=#8C4FFF;strokeColor=#ffffff;dashed=0;verticalLabelPosition=bottom;verticalAlign=top;align=center;html=1;fontSize=12;fontStyle=0;aspect=fixed;shape=mxgraph.aws4.resourceIcon;resIcon=mxgraph.aws4.sql_workbench;" vertex="1" parent="1">
          <mxGeometry x="395.9" y="475" width="78" height="78" as="geometry" />
        </mxCell>
      </root>
    </mxGraphModel>
  </diagram>
</mxfile>
